<mxfile host="app.diagrams.net" modified="2025-02-05T00:00:00.000Z" agent="Mozilla/5.0" version="14.6.13" type="device">
  <diagram id="diagramMFNNetwork" name="MFN Network Design - Network Shapes">
    <mxGraphModel dx="1024" dy="768" grid="1" gridSize="10" guides="1" tooltips="1" connect="1" arrows="1" fold="1" page="1" pageScale="1" pageWidth="1200" pageHeight="800" math="0" shadow="0">
      <root>
        <mxCell id="0"/>
        <mxCell id="1" parent="0"/>
        
        <!-- MFN Headend Container -->
        <mxCell id="headend" value="MFN Headend" style="rounded=1;whiteSpace=wrap;html=1;strokeColor=#000000;fillColor=#dae8fc;fontSize=12;" vertex="1" parent="1">
          <mxGeometry x="320" y="20" width="260" height="120" as="geometry"/>
        </mxCell>
        
        <!-- Router 1 inside MFN Headend -->
        <mxCell id="router1" value="Router 1" style="shape=mxgraph.network.router;verticalLabelPosition=bottom;verticalAlign=top;fillColor=#dae8fc;strokeColor=#6c8ebf;fontSize=12;" vertex="1" parent="headend">
          <mxGeometry x="20" y="20" width="60" height="60" as="geometry"/>
        </mxCell>
        
        <!-- Router 2 inside MFN Headend -->
        <mxCell id="router2" value="Router 2" style="shape=mxgraph.network.router;verticalLabelPosition=bottom;verticalAlign=top;fillColor=#dae8fc;strokeColor=#6c8ebf;fontSize=12;" vertex="1" parent="headend">
          <mxGeometry x="100" y="20" width="60" height="60" as="geometry"/>
        </mxCell>
        
        <!-- Router 3 inside MFN Headend -->
        <mxCell id="router3" value="Router 3" style="shape=mxgraph.network.router;verticalLabelPosition=bottom;verticalAlign=top;fillColor=#dae8fc;strokeColor=#6c8ebf;fontSize=12;" vertex="1" parent="headend">
          <mxGeometry x="180" y="20" width="60" height="60" as="geometry"/>
        </mxCell>
        
        <!-- Cable Modem Router (placed adjacent to Headend) -->
        <mxCell id="cableRouter" value="Cable Modem Router" style="shape=mxgraph.network.router;verticalLabelPosition=bottom;verticalAlign=top;fillColor=#e1d5e7;strokeColor=#9673a6;fontSize=12;" vertex="1" parent="1">
          <mxGeometry x="620" y="20" width="60" height="60" as="geometry"/>
        </mxCell>
        
        <!-- Backbone Ring (using hub shape to represent the central backbone) -->
        <mxCell id="backboneRing" value="Backbone Ring" style="shape=mxgraph.network.hub;verticalLabelPosition=bottom;verticalAlign=top;fillColor=#fff2cc;strokeColor=#d6b656;fontSize=12;" vertex="1" parent="1">
          <mxGeometry x="260" y="160" width="480" height="480" as="geometry"/>
        </mxCell>
        
        <!-- Data Router 1 on Backbone Ring -->
        <mxCell id="dataRouter1" value="Data Router 1" style="shape=mxgraph.network.router;verticalLabelPosition=bottom;verticalAlign=top;fillColor=#d5e8d4;strokeColor=#82b366;fontSize=12;" vertex="1" parent="1">
          <mxGeometry x="480" y="160" width="60" height="60" as="geometry"/>
        </mxCell>
        
        <!-- Data Router 2 on Backbone Ring -->
        <mxCell id="dataRouter2" value="Data Router 2" style="shape=mxgraph.network.router;verticalLabelPosition=bottom;verticalAlign=top;fillColor=#d5e8d4;strokeColor=#82b366;fontSize=12;" vertex="1" parent="1">
          <mxGeometry x="300" y="540" width="60" height="60" as="geometry"/>
        </mxCell>
        
        <!-- Data Router 3 on Backbone Ring -->
        <mxCell id="dataRouter3" value="Data Router 3" style="shape=mxgraph.network.router;verticalLabelPosition=bottom;verticalAlign=top;fillColor=#d5e8d4;strokeColor=#82b366;fontSize=12;" vertex="1" parent="1">
          <mxGeometry x="600" y="540" width="60" height="60" as="geometry"/>
        </mxCell>
        
        <!-- Business Premises connected to Data Router 1 -->
        <mxCell id="business" value="Business Premises&#xa;(Media Converter, 100 Mbps Switch)" style="shape=mxgraph.network.computer;verticalLabelPosition=bottom;verticalAlign=top;fillColor=#f8cecc;strokeColor=#b85450;fontSize=12;" vertex="1" parent="1">
          <mxGeometry x="480" y="100" width="100" height="60" as="geometry"/>
        </mxCell>
        
        <!-- Hybrid Fiber-Coax Node for Residential Service -->
        <mxCell id="hybridNode" value="Hybrid Fiber-Coax Node" style="shape=mxgraph.network.server;verticalLabelPosition=bottom;verticalAlign=top;fillColor=#ffe6cc;strokeColor=#d79b00;fontSize=12;" vertex="1" parent="1">
          <mxGeometry x="780" y="540" width="80" height="60" as="geometry"/>
        </mxCell>
        
        <!-- Residential Home connected to Hybrid Node -->
        <mxCell id="residentialHome" value="Residential Home" style="shape=mxgraph.network.computer;verticalLabelPosition=bottom;verticalAlign=top;fillColor=#e1f5fe;strokeColor=#039be5;fontSize=12;" vertex="1" parent="1">
          <mxGeometry x="780" y="620" width="80" height="60" as="geometry"/>
        </mxCell>
        
        <!-- Wireless Access Point for Future Wireless Expansion -->
        <mxCell id="wirelessAP" value="Wireless Access Point" style="shape=mxgraph.network.wireless;verticalLabelPosition=bottom;verticalAlign=top;fillColor=#f0f4c3;strokeColor=#afb42b;fontSize=12;" vertex="1" parent="1">
          <mxGeometry x="100" y="540" width="80" height="60" as="geometry"/>
        </mxCell>
        
        <!-- Connectors -->
        <!-- MFN Headend to Backbone Ring -->
        <mxCell id="edge1" edge="1" source="headend" target="backboneRing" style="edgeStyle=orthogonalEdgeStyle;rounded=0;html=1;strokeColor=#000000;" parent="1">
          <mxGeometry relative="1" as="geometry"/>
        </mxCell>
        
        <!-- Cable Modem Router to Backbone Ring -->
        <mxCell id="edge2" edge="1" source="cableRouter" target="backboneRing" style="edgeStyle=orthogonalEdgeStyle;rounded=0;html=1;strokeColor=#000000;" parent="1">
          <mxGeometry relative="1" as="geometry"/>
        </mxCell>
        
        <!-- Backbone Ring to Data Router 1 -->
        <mxCell id="edge3" edge="1" source="backboneRing" target="dataRouter1" style="edgeStyle=orthogonalEdgeStyle;rounded=0;html=1;strokeColor=#000000;" parent="1">
          <mxGeometry relative="1" as="geometry"/>
        </mxCell>
        
        <!-- Backbone Ring to Data Router 2 -->
        <mxCell id="edge4" edge="1" source="backboneRing" target="dataRouter2" style="edgeStyle=orthogonalEdgeStyle;rounded=0;html=1;strokeColor=#000000;" parent="1">
          <mxGeometry relative="1" as="geometry"/>
        </mxCell>
        
        <!-- Backbone Ring to Data Router 3 -->
        <mxCell id="edge5" edge="1" source="backboneRing" target="dataRouter3" style="edgeStyle=orthogonalEdgeStyle;rounded=0;html=1;strokeColor=#000000;" parent="1">
          <mxGeometry relative="1" as="geometry"/>
        </mxCell>
        
        <!-- Data Router 1 to Business Premises -->
        <mxCell id="edge6" edge="1" source="dataRouter1" target="business" style="edgeStyle=orthogonalEdgeStyle;rounded=0;html=1;strokeColor=#000000;" parent="1">
          <mxGeometry relative="1" as="geometry"/>
        </mxCell>
        
        <!-- Backbone Ring to Hybrid Fiber-Coax Node -->
        <mxCell id="edge7" edge="1" source="backboneRing" target="hybridNode" style="edgeStyle=orthogonalEdgeStyle;rounded=0;html=1;strokeColor=#000000;" parent="1">
          <mxGeometry relative="1" as="geometry"/>
        </mxCell>
        
        <!-- Hybrid Node to Residential Home -->
        <mxCell id="edge8" edge="1" source="hybridNode" target="residentialHome" style="edgeStyle=orthogonalEdgeStyle;rounded=0;html=1;strokeColor=#000000;" parent="1">
          <mxGeometry relative="1" as="geometry"/>
        </mxCell>
        
        <!-- Backbone Ring to Wireless Access Point -->
        <mxCell id="edge9" edge="1" source="backboneRing" target="wirelessAP" style="edgeStyle=orthogonalEdgeStyle;rounded=0;html=1;strokeColor=#000000;" parent="1">
          <mxGeometry relative="1" as="geometry"/>
        </mxCell>
        
      </root>
    </mxGraphModel>
  </diagram>
</mxfile>
